# xmcd
#
# Track frame offsets: 
#        150
#        13097
#        53385
#        109634
#        127993
#        202722
#        236669
#
# Disc length: 3787 seconds
#
# Revision: 1
# Processed by: cddbd v1.5.2PL0 Copyright (c) Steve Scherf et al.
# Submitted via: ExactAudioCopy v1.0b1
#
DISCID=4a0ec907
DTITLE=Ron Miles - Stone
DYEAR=2006
DGENRE=Jazz
TTITLE0=Clairvoyant
TTITLE1=Devil In Mind
TTITLE2=Letter Grade
TTITLE3=Unconditional
TTITLE4=Stone
TTITLE5=Grown Folks
TTITLE6=Cupid
EXTD=YEAR: 2006
EXTT0=
EXTT1=
EXTT2=
EXTT3=
EXTT4=
EXTT5=
EXTT6=
PLAYORDER=
